<svg width="394" height="286" viewBox="0 0 394 286" fill="none" xmlns="http://www.w3.org/2000/svg">
<g clip-path="url(#clip0_1704_185)">
<path d="M229.057 50.4185C236.427 50.4185 242.402 44.444 242.402 37.0741C242.402 29.7042 236.427 23.7297 229.057 23.7297C221.688 23.7297 215.713 29.7042 215.713 37.0741C215.713 44.444 221.688 50.4185 229.057 50.4185Z" fill="#F2F2F2"/>
<path d="M332.574 248.464C352.409 233.356 361.882 207.97 355.952 183.752C355.804 183.15 355.649 182.55 355.485 181.951C351.553 167.576 341.825 153.913 327.647 149.32C315.743 145.463 302.749 148.429 290.33 146.895C265.95 143.885 247.049 124.159 233.75 103.505C220.45 82.8518 210.229 59.7333 192.557 42.6706C163.428 14.5456 115.911 8.49023 79.7948 26.7975C43.6787 45.1048 20.6731 85.7211 21.6542 126.2C22.6354 166.68 46.6661 205.381 81.5647 225.914C94.385 233.457 109.213 238.801 123.97 236.931C136.774 235.308 148.408 228.428 161.152 226.386C181.189 223.174 201.098 232.234 218.428 242.79C235.758 253.347 252.497 265.86 272.191 270.754C291.313 275.506 315.003 261.847 332.574 248.464Z" fill="#F2F2F2"/>
<path d="M304.076 27.6475C303.641 27.3576 303.201 27.0828 302.767 26.8029C290.198 18.7644 276.726 12.234 262.63 7.34666L259.361 52.4363H238.64V0.764624C237.336 0.494746 236.022 0.239861 234.707 -3.05176e-05V52.4363H210.083C196.528 52.4363 183.527 47.0514 173.942 37.466C164.356 27.8807 158.971 14.8802 158.971 1.32443V1.32438C157.652 1.60926 156.343 1.91412 155.033 2.23897V52.4364H134.977L131.864 9.44072C117.377 14.9964 103.625 22.3023 90.912 31.1959C90.6921 31.3459 90.4722 31.5008 90.2573 31.6507C89.1528 32.4254 88.0633 33.215 86.9788 34.0147V206.032H146.087L145.043 191.564L139.295 112.124H255.038L249.291 191.564L248.246 206.032H306.7V29.3867C305.83 28.797 304.956 28.2173 304.076 27.6475ZM155.033 99.0053H138.346L135.262 56.3746H155.033V99.0053ZM234.707 99.0053H206.68V98.1607C206.68 97.7547 206.6 97.3527 206.444 96.9776C206.289 96.6025 206.061 96.2618 205.774 95.975C205.486 95.6881 205.145 95.4607 204.77 95.3058C204.394 95.1508 203.992 95.0714 203.586 95.0721H191.402C190.996 95.072 190.594 95.1517 190.22 95.3069C189.845 95.4621 189.504 95.6896 189.217 95.9764C188.931 96.2632 188.703 96.6038 188.548 96.9786C188.393 97.3534 188.313 97.7551 188.313 98.1607V99.0053H158.971V56.3746H234.707V99.0053ZM238.64 99.0053V56.3746H259.076L255.993 99.0053H238.64Z" fill="#3F3D56"/>
<path d="M7.62939e-06 217.048C4.34168 222.192 9.03769 227.027 14.0537 231.516L379.179 232.016C384.195 227.526 388.891 222.692 393.233 217.547L7.62939e-06 217.048Z" fill="#3F3D56"/>
<path d="M247.603 170.719V213.551C247.604 214.097 247.821 214.621 248.207 215.007C248.593 215.393 249.116 215.61 249.662 215.61H313.136C313.681 215.61 314.205 215.393 314.591 215.007C314.977 214.621 315.194 214.097 315.194 213.551V170.719C315.193 170.173 314.976 169.651 314.59 169.265C314.204 168.88 313.681 168.663 313.136 168.662H249.662C249.117 168.663 248.594 168.88 248.208 169.265C247.822 169.651 247.605 170.173 247.603 170.719Z" fill="#3F3D56"/>
<path d="M249.092 171.252V213.023C249.093 213.315 249.209 213.594 249.415 213.8C249.621 214.007 249.901 214.123 250.193 214.123H312.607C312.899 214.123 313.178 214.007 313.385 213.8C313.591 213.594 313.707 213.315 313.707 213.023V171.252C313.707 170.96 313.592 170.68 313.385 170.473C313.179 170.266 312.899 170.15 312.607 170.149H250.193C249.901 170.15 249.621 170.266 249.415 170.473C249.208 170.68 249.092 170.96 249.092 171.252Z" fill="#E76F51"/>
<path d="M246.276 221.905C246.392 222.051 246.54 222.168 246.708 222.249C246.876 222.329 247.061 222.371 247.247 222.37H315.213C315.398 222.369 315.582 222.328 315.75 222.248C315.917 222.168 316.065 222.051 316.182 221.907C316.299 221.763 316.383 221.594 316.427 221.413C316.47 221.233 316.473 221.044 316.435 220.863L315.38 215.851C315.336 215.647 315.242 215.457 315.106 215.298C314.97 215.139 314.797 215.017 314.601 214.943C314.46 214.887 314.309 214.859 314.157 214.859H248.298C248.146 214.859 247.996 214.887 247.854 214.943C247.659 215.017 247.485 215.139 247.349 215.298C247.213 215.457 247.119 215.647 247.076 215.851L246.02 220.863C245.983 221.044 245.986 221.232 246.031 221.413C246.075 221.593 246.159 221.761 246.276 221.905Z" fill="#2F2E41"/>
<path d="M311.825 217.017H313.431C313.566 217.017 313.675 216.908 313.675 216.773V216.005C313.675 215.871 313.566 215.761 313.431 215.761H311.825C311.691 215.761 311.581 215.871 311.581 216.005V216.773C311.581 216.908 311.691 217.017 311.825 217.017Z" fill="#3F3D56"/>
<path d="M307.639 217.017H309.244C309.379 217.017 309.488 216.908 309.488 216.773V216.005C309.488 215.871 309.379 215.761 309.244 215.761H307.639C307.504 215.761 307.395 215.871 307.395 216.005V216.773C307.395 216.908 307.504 217.017 307.639 217.017Z" fill="#3F3D56"/>
<path d="M303.452 217.017H305.058C305.192 217.017 305.302 216.908 305.302 216.773V216.005C305.302 215.871 305.192 215.761 305.058 215.761H303.452C303.318 215.761 303.208 215.871 303.208 216.005V216.773C303.208 216.908 303.318 217.017 303.452 217.017Z" fill="#3F3D56"/>
<path d="M299.266 217.017H300.871C301.006 217.017 301.115 216.908 301.115 216.773V216.005C301.115 215.871 301.006 215.761 300.871 215.761H299.266C299.131 215.761 299.022 215.871 299.022 216.005V216.773C299.022 216.908 299.131 217.017 299.266 217.017Z" fill="#3F3D56"/>
<path d="M295.079 217.017H296.684C296.819 217.017 296.928 216.908 296.928 216.773V216.005C296.928 215.871 296.819 215.761 296.684 215.761H295.079C294.944 215.761 294.835 215.871 294.835 216.005V216.773C294.835 216.908 294.944 217.017 295.079 217.017Z" fill="#3F3D56"/>
<path d="M290.892 217.017H292.498C292.633 217.017 292.742 216.908 292.742 216.773V216.005C292.742 215.871 292.633 215.761 292.498 215.761H290.892C290.758 215.761 290.648 215.871 290.648 216.005V216.773C290.648 216.908 290.758 217.017 290.892 217.017Z" fill="#3F3D56"/>
<path d="M286.706 217.017H288.311C288.446 217.017 288.555 216.908 288.555 216.773V216.005C288.555 215.871 288.446 215.761 288.311 215.761H286.706C286.571 215.761 286.462 215.871 286.462 216.005V216.773C286.462 216.908 286.571 217.017 286.706 217.017Z" fill="#3F3D56"/>
<path d="M282.519 217.017H284.125C284.259 217.017 284.369 216.908 284.369 216.773V216.005C284.369 215.871 284.259 215.761 284.125 215.761H282.519C282.385 215.761 282.275 215.871 282.275 216.005V216.773C282.275 216.908 282.385 217.017 282.519 217.017Z" fill="#3F3D56"/>
<path d="M278.333 217.017H279.938C280.073 217.017 280.182 216.908 280.182 216.773V216.005C280.182 215.871 280.073 215.761 279.938 215.761H278.333C278.198 215.761 278.089 215.871 278.089 216.005V216.773C278.089 216.908 278.198 217.017 278.333 217.017Z" fill="#3F3D56"/>
<path d="M274.146 217.017H275.751C275.886 217.017 275.995 216.908 275.995 216.773V216.005C275.995 215.871 275.886 215.761 275.751 215.761H274.146C274.011 215.761 273.902 215.871 273.902 216.005V216.773C273.902 216.908 274.011 217.017 274.146 217.017Z" fill="#3F3D56"/>
<path d="M269.959 217.017H271.565C271.7 217.017 271.809 216.908 271.809 216.773V216.005C271.809 215.871 271.7 215.761 271.565 215.761H269.959C269.825 215.761 269.715 215.871 269.715 216.005V216.773C269.715 216.908 269.825 217.017 269.959 217.017Z" fill="#3F3D56"/>
<path d="M265.773 217.017H267.378C267.513 217.017 267.622 216.908 267.622 216.773V216.005C267.622 215.871 267.513 215.761 267.378 215.761H265.773C265.638 215.761 265.529 215.871 265.529 216.005V216.773C265.529 216.908 265.638 217.017 265.773 217.017Z" fill="#3F3D56"/>
<path d="M261.586 217.017H263.192C263.326 217.017 263.436 216.908 263.436 216.773V216.005C263.436 215.871 263.326 215.761 263.192 215.761H261.586C261.451 215.761 261.342 215.871 261.342 216.005V216.773C261.342 216.908 261.451 217.017 261.586 217.017Z" fill="#3F3D56"/>
<path d="M257.4 217.017H259.005C259.14 217.017 259.249 216.908 259.249 216.773V216.005C259.249 215.871 259.14 215.761 259.005 215.761H257.4C257.265 215.761 257.156 215.871 257.156 216.005V216.773C257.156 216.908 257.265 217.017 257.4 217.017Z" fill="#3F3D56"/>
<path d="M253.213 217.017H254.818C254.953 217.017 255.062 216.908 255.062 216.773V216.005C255.062 215.871 254.953 215.761 254.818 215.761H253.213C253.078 215.761 252.969 215.871 252.969 216.005V216.773C252.969 216.908 253.078 217.017 253.213 217.017Z" fill="#3F3D56"/>
<path d="M249.026 217.017H250.632C250.767 217.017 250.876 216.908 250.876 216.773V216.005C250.876 215.871 250.767 215.761 250.632 215.761H249.026C248.892 215.761 248.782 215.871 248.782 216.005V216.773C248.782 216.908 248.892 217.017 249.026 217.017Z" fill="#3F3D56"/>
<path d="M311.875 219.111H313.48C313.615 219.111 313.724 219.001 313.724 218.867V218.099C313.724 217.964 313.615 217.855 313.48 217.855H311.875C311.74 217.855 311.631 217.964 311.631 218.099V218.867C311.631 219.001 311.74 219.111 311.875 219.111Z" fill="#3F3D56"/>
<path d="M307.688 219.111H309.294C309.428 219.111 309.538 219.001 309.538 218.867V218.099C309.538 217.964 309.428 217.855 309.294 217.855H307.688C307.554 217.855 307.444 217.964 307.444 218.099V218.867C307.444 219.001 307.554 219.111 307.688 219.111Z" fill="#3F3D56"/>
<path d="M303.502 219.111H305.107C305.242 219.111 305.351 219.001 305.351 218.867V218.099C305.351 217.964 305.242 217.855 305.107 217.855H303.502C303.367 217.855 303.258 217.964 303.258 218.099V218.867C303.258 219.001 303.367 219.111 303.502 219.111Z" fill="#3F3D56"/>
<path d="M299.315 219.111H300.92C301.055 219.111 301.164 219.001 301.164 218.867V218.099C301.164 217.964 301.055 217.855 300.92 217.855H299.315C299.18 217.855 299.071 217.964 299.071 218.099V218.867C299.071 219.001 299.18 219.111 299.315 219.111Z" fill="#3F3D56"/>
<path d="M295.129 219.111H296.734C296.869 219.111 296.978 219.001 296.978 218.867V218.099C296.978 217.964 296.869 217.855 296.734 217.855H295.129C294.994 217.855 294.885 217.964 294.885 218.099V218.867C294.885 219.001 294.994 219.111 295.129 219.111Z" fill="#3F3D56"/>
<path d="M290.942 219.111H292.547C292.682 219.111 292.791 219.001 292.791 218.867V218.099C292.791 217.964 292.682 217.855 292.547 217.855H290.942C290.807 217.855 290.698 217.964 290.698 218.099V218.867C290.698 219.001 290.807 219.111 290.942 219.111Z" fill="#3F3D56"/>
<path d="M286.755 219.111H288.361C288.495 219.111 288.605 219.001 288.605 218.867V218.099C288.605 217.964 288.495 217.855 288.361 217.855H286.755C286.621 217.855 286.511 217.964 286.511 218.099V218.867C286.511 219.001 286.621 219.111 286.755 219.111Z" fill="#3F3D56"/>
<path d="M282.569 219.111H284.174C284.309 219.111 284.418 219.001 284.418 218.867V218.099C284.418 217.964 284.309 217.855 284.174 217.855H282.569C282.434 217.855 282.325 217.964 282.325 218.099V218.867C282.325 219.001 282.434 219.111 282.569 219.111Z" fill="#3F3D56"/>
<path d="M278.382 219.111H279.987C280.122 219.111 280.231 219.001 280.231 218.867V218.099C280.231 217.964 280.122 217.855 279.987 217.855H278.382C278.247 217.855 278.138 217.964 278.138 218.099V218.867C278.138 219.001 278.247 219.111 278.382 219.111Z" fill="#3F3D56"/>
<path d="M274.196 219.111H275.801C275.936 219.111 276.045 219.001 276.045 218.867V218.099C276.045 217.964 275.936 217.855 275.801 217.855H274.196C274.061 217.855 273.952 217.964 273.952 218.099V218.867C273.952 219.001 274.061 219.111 274.196 219.111Z" fill="#3F3D56"/>
<path d="M270.009 219.111H271.614C271.749 219.111 271.858 219.001 271.858 218.867V218.099C271.858 217.964 271.749 217.855 271.614 217.855H270.009C269.874 217.855 269.765 217.964 269.765 218.099V218.867C269.765 219.001 269.874 219.111 270.009 219.111Z" fill="#3F3D56"/>
<path d="M265.822 219.111H267.428C267.562 219.111 267.672 219.001 267.672 218.867V218.099C267.672 217.964 267.562 217.855 267.428 217.855H265.822C265.688 217.855 265.578 217.964 265.578 218.099V218.867C265.578 219.001 265.688 219.111 265.822 219.111Z" fill="#3F3D56"/>
<path d="M261.636 219.111H263.241C263.376 219.111 263.485 219.001 263.485 218.867V218.099C263.485 217.964 263.376 217.855 263.241 217.855H261.636C261.501 217.855 261.392 217.964 261.392 218.099V218.867C261.392 219.001 261.501 219.111 261.636 219.111Z" fill="#3F3D56"/>
<path d="M257.449 219.111H259.054C259.189 219.111 259.298 219.001 259.298 218.867V218.099C259.298 217.964 259.189 217.855 259.054 217.855H257.449C257.314 217.855 257.205 217.964 257.205 218.099V218.867C257.205 219.001 257.314 219.111 257.449 219.111Z" fill="#3F3D56"/>
<path d="M253.262 219.111H254.868C255.003 219.111 255.112 219.001 255.112 218.867V218.099C255.112 217.964 255.003 217.855 254.868 217.855H253.262C253.128 217.855 253.019 217.964 253.019 218.099V218.867C253.019 219.001 253.128 219.111 253.262 219.111Z" fill="#3F3D56"/>
<path d="M249.076 219.111H250.681C250.816 219.111 250.925 219.001 250.925 218.867V218.099C250.925 217.964 250.816 217.855 250.681 217.855H249.076C248.941 217.855 248.832 217.964 248.832 218.099V218.867C248.832 219.001 248.941 219.111 249.076 219.111Z" fill="#3F3D56"/>
<path d="M277.126 221.623H293.385C293.519 221.623 293.629 221.513 293.629 221.379V220.611C293.629 220.476 293.519 220.367 293.385 220.367H277.126C276.991 220.367 276.882 220.476 276.882 220.611V221.379C276.882 221.513 276.991 221.623 277.126 221.623Z" fill="#3F3D56"/>
<path d="M259.901 179.288H258.48C258.049 179.288 257.699 179.637 257.699 180.068C257.699 180.499 258.049 180.848 258.48 180.848H259.901C260.332 180.848 260.681 180.499 260.681 180.068C260.681 179.637 260.332 179.288 259.901 179.288Z" fill="white"/>
<path d="M276.155 179.288H274.734C274.303 179.288 273.954 179.637 273.954 180.068C273.954 180.499 274.303 180.848 274.734 180.848H276.155C276.586 180.848 276.935 180.499 276.935 180.068C276.935 179.637 276.586 179.288 276.155 179.288Z" fill="white"/>
<path d="M280.76 179.288H279.339C278.908 179.288 278.559 179.637 278.559 180.068C278.559 180.499 278.908 180.848 279.339 180.848H280.76C281.191 180.848 281.541 180.499 281.541 180.068C281.541 179.637 281.191 179.288 280.76 179.288Z" fill="white"/>
<path d="M271.734 179.158H262.901C262.47 179.158 262.121 179.507 262.121 179.938C262.121 180.369 262.47 180.718 262.901 180.718H271.734C272.165 180.718 272.514 180.369 272.514 179.938C272.514 179.507 272.165 179.158 271.734 179.158Z" fill="white"/>
<path d="M293.406 179.158H284.573C284.142 179.158 283.793 179.507 283.793 179.938C283.793 180.369 284.142 180.718 284.573 180.718H293.406C293.837 180.718 294.186 180.369 294.186 179.938C294.186 179.507 293.837 179.158 293.406 179.158Z" fill="white"/>
<path d="M264.235 182.809H262.814C262.383 182.809 262.034 183.159 262.034 183.59C262.034 184.021 262.383 184.37 262.814 184.37H264.235C264.666 184.37 265.015 184.021 265.015 183.59C265.015 183.159 264.666 182.809 264.235 182.809Z" fill="white"/>
<path d="M280.489 182.809H279.068C278.637 182.809 278.288 183.159 278.288 183.59C278.288 184.021 278.637 184.37 279.068 184.37H280.489C280.92 184.37 281.27 184.021 281.27 183.59C281.27 183.159 280.92 182.809 280.489 182.809Z" fill="white"/>
<path d="M285.095 182.809H283.674C283.243 182.809 282.893 183.159 282.893 183.59C282.893 184.021 283.243 184.37 283.674 184.37H285.095C285.526 184.37 285.875 184.021 285.875 183.59C285.875 183.159 285.526 182.809 285.095 182.809Z" fill="white"/>
<path d="M276.068 182.679H267.235C266.804 182.679 266.455 183.029 266.455 183.46C266.455 183.89 266.804 184.24 267.235 184.24H276.068C276.499 184.24 276.848 183.89 276.848 183.46C276.848 183.029 276.499 182.679 276.068 182.679Z" fill="white"/>
<path d="M297.74 182.679H288.907C288.477 182.679 288.127 183.029 288.127 183.46C288.127 183.89 288.477 184.24 288.907 184.24H297.74C298.171 184.24 298.521 183.89 298.521 183.46C298.521 183.029 298.171 182.679 297.74 182.679Z" fill="white"/>
<path d="M268.57 186.331H267.148C266.718 186.331 266.368 186.681 266.368 187.111C266.368 187.542 266.718 187.892 267.148 187.892H268.57C269.001 187.892 269.35 187.542 269.35 187.111C269.35 186.681 269.001 186.331 268.57 186.331Z" fill="white"/>
<path d="M284.824 186.331H283.403C282.972 186.331 282.622 186.681 282.622 187.111C282.622 187.542 282.972 187.892 283.403 187.892H284.824C285.255 187.892 285.604 187.542 285.604 187.111C285.604 186.681 285.255 186.331 284.824 186.331Z" fill="white"/>
<path d="M289.429 186.331H288.008C287.577 186.331 287.228 186.681 287.228 187.111C287.228 187.542 287.577 187.892 288.008 187.892H289.429C289.86 187.892 290.209 187.542 290.209 187.111C290.209 186.681 289.86 186.331 289.429 186.331Z" fill="white"/>
<path d="M280.403 186.201H271.57C271.139 186.201 270.79 186.55 270.79 186.981C270.79 187.412 271.139 187.762 271.57 187.762H280.403C280.834 187.762 281.183 187.412 281.183 186.981C281.183 186.55 280.834 186.201 280.403 186.201Z" fill="white"/>
<path d="M302.075 186.201H293.242C292.811 186.201 292.462 186.55 292.462 186.981C292.462 187.412 292.811 187.762 293.242 187.762H302.075C302.506 187.762 302.855 187.412 302.855 186.981C302.855 186.55 302.506 186.201 302.075 186.201Z" fill="white"/>
<path d="M272.904 189.853H271.483C271.052 189.853 270.703 190.202 270.703 190.633C270.703 191.064 271.052 191.413 271.483 191.413H272.904C273.335 191.413 273.684 191.064 273.684 190.633C273.684 190.202 273.335 189.853 272.904 189.853Z" fill="white"/>
<path d="M289.158 189.853H287.737C287.306 189.853 286.957 190.202 286.957 190.633C286.957 191.064 287.306 191.413 287.737 191.413H289.158C289.589 191.413 289.939 191.064 289.939 190.633C289.939 190.202 289.589 189.853 289.158 189.853Z" fill="white"/>
<path d="M293.764 189.853H292.342C291.912 189.853 291.562 190.202 291.562 190.633C291.562 191.064 291.912 191.413 292.342 191.413H293.764C294.195 191.413 294.544 191.064 294.544 190.633C294.544 190.202 294.195 189.853 293.764 189.853Z" fill="white"/>
<path d="M284.737 189.723H275.904C275.473 189.723 275.124 190.072 275.124 190.503C275.124 190.934 275.473 191.283 275.904 191.283H284.737C285.168 191.283 285.517 190.934 285.517 190.503C285.517 190.072 285.168 189.723 284.737 189.723Z" fill="white"/>
<path d="M276.155 203.857H274.734C274.303 203.857 273.954 204.206 273.954 204.637C273.954 205.068 274.303 205.417 274.734 205.417H276.155C276.586 205.417 276.935 205.068 276.935 204.637C276.935 204.206 276.586 203.857 276.155 203.857Z" fill="white"/>
<path d="M280.76 203.857H279.339C278.908 203.857 278.559 204.206 278.559 204.637C278.559 205.068 278.908 205.417 279.339 205.417H280.76C281.191 205.417 281.541 205.068 281.541 204.637C281.541 204.206 281.191 203.857 280.76 203.857Z" fill="white"/>
<path d="M293.406 203.987H284.573C284.142 203.987 283.793 204.336 283.793 204.767C283.793 205.198 284.142 205.547 284.573 205.547H293.406C293.837 205.547 294.186 205.198 294.186 204.767C294.186 204.336 293.837 203.987 293.406 203.987Z" fill="white"/>
<path d="M259.901 203.857H258.48C258.049 203.857 257.699 204.206 257.699 204.637C257.699 205.068 258.049 205.417 258.48 205.417H259.901C260.332 205.417 260.681 205.068 260.681 204.637C260.681 204.206 260.332 203.857 259.901 203.857Z" fill="white"/>
<path d="M271.734 203.987H262.901C262.47 203.987 262.121 204.336 262.121 204.767C262.121 205.198 262.47 205.547 262.901 205.547H271.734C272.165 205.547 272.514 205.198 272.514 204.767C272.514 204.336 272.165 203.987 271.734 203.987Z" fill="white"/>
<path d="M264.235 200.335H262.814C262.383 200.335 262.034 200.684 262.034 201.115C262.034 201.546 262.383 201.896 262.814 201.896H264.235C264.666 201.896 265.015 201.546 265.015 201.115C265.015 200.684 264.666 200.335 264.235 200.335Z" fill="white"/>
<path d="M280.489 200.335H279.068C278.637 200.335 278.288 200.684 278.288 201.115C278.288 201.546 278.637 201.896 279.068 201.896H280.489C280.92 201.896 281.27 201.546 281.27 201.115C281.27 200.684 280.92 200.335 280.489 200.335Z" fill="white"/>
<path d="M285.095 200.335H283.674C283.243 200.335 282.893 200.684 282.893 201.115C282.893 201.546 283.243 201.896 283.674 201.896H285.095C285.526 201.896 285.875 201.546 285.875 201.115C285.875 200.684 285.526 200.335 285.095 200.335Z" fill="white"/>
<path d="M276.068 200.465H267.235C266.804 200.465 266.455 200.815 266.455 201.245C266.455 201.676 266.804 202.026 267.235 202.026H276.068C276.499 202.026 276.848 201.676 276.848 201.245C276.848 200.815 276.499 200.465 276.068 200.465Z" fill="white"/>
<path d="M268.57 196.813H267.148C266.718 196.813 266.368 197.163 266.368 197.594C266.368 198.024 266.718 198.374 267.148 198.374H268.57C269.001 198.374 269.35 198.024 269.35 197.594C269.35 197.163 269.001 196.813 268.57 196.813Z" fill="white"/>
<path d="M284.824 196.813H283.403C282.972 196.813 282.622 197.163 282.622 197.594C282.622 198.024 282.972 198.374 283.403 198.374H284.824C285.255 198.374 285.604 198.024 285.604 197.594C285.604 197.163 285.255 196.813 284.824 196.813Z" fill="white"/>
<path d="M289.429 196.813H288.008C287.577 196.813 287.228 197.163 287.228 197.594C287.228 198.024 287.577 198.374 288.008 198.374H289.429C289.86 198.374 290.209 198.024 290.209 197.594C290.209 197.163 289.86 196.813 289.429 196.813Z" fill="white"/>
<path d="M280.403 196.943H271.57C271.139 196.943 270.79 197.293 270.79 197.724C270.79 198.155 271.139 198.504 271.57 198.504H280.403C280.834 198.504 281.183 198.155 281.183 197.724C281.183 197.293 280.834 196.943 280.403 196.943Z" fill="white"/>
<path d="M272.904 193.292H271.483C271.052 193.292 270.703 193.641 270.703 194.072C270.703 194.503 271.052 194.852 271.483 194.852H272.904C273.335 194.852 273.684 194.503 273.684 194.072C273.684 193.641 273.335 193.292 272.904 193.292Z" fill="white"/>
<path d="M289.158 193.292H287.737C287.306 193.292 286.957 193.641 286.957 194.072C286.957 194.503 287.306 194.852 287.737 194.852H289.158C289.589 194.852 289.939 194.503 289.939 194.072C289.939 193.641 289.589 193.292 289.158 193.292Z" fill="white"/>
<path d="M293.764 193.292H292.342C291.912 193.292 291.562 193.641 291.562 194.072C291.562 194.503 291.912 194.852 292.342 194.852H293.764C294.195 194.852 294.544 194.503 294.544 194.072C294.544 193.641 294.195 193.292 293.764 193.292Z" fill="white"/>
<path d="M284.737 193.422H275.904C275.473 193.422 275.124 193.771 275.124 194.202C275.124 194.633 275.473 194.982 275.904 194.982H284.737C285.168 194.982 285.517 194.633 285.517 194.202C285.517 193.771 285.168 193.422 284.737 193.422Z" fill="white"/>
<path d="M252.345 245.13L245.673 234.584L266.615 217.89L275.258 208.314C276.381 207.07 277.811 206.142 279.405 205.624C280.999 205.106 282.701 205.015 284.341 205.36C285.981 205.705 287.502 206.475 288.751 207.592C290 208.71 290.934 210.135 291.46 211.727C292.239 214.085 292.072 216.654 290.993 218.891C289.914 221.128 288.008 222.858 285.678 223.717L272.009 228.752L252.345 245.13Z" fill="#FFB6B6"/>
<path d="M95.8018 168.664V219.921H131.711V168.664C131.711 168.296 131.594 167.937 131.375 167.64C131.156 167.343 130.848 167.124 130.496 167.015C130.33 166.96 130.156 166.933 129.981 166.935H97.5361C97.3086 166.935 97.0833 166.979 96.873 167.066C96.6627 167.152 96.4716 167.28 96.3106 167.44C96.1495 167.601 96.0217 167.792 95.9344 168.002C95.8471 168.212 95.802 168.437 95.8018 168.664ZM109.816 186.276C109.825 185.266 110.233 184.3 110.951 183.589C111.669 182.878 112.638 182.479 113.649 182.479C114.659 182.479 115.629 182.878 116.347 183.589C117.065 184.3 117.473 185.266 117.482 186.276V192.224C117.477 193.237 117.071 194.207 116.352 194.922C115.634 195.636 114.662 196.038 113.649 196.038C112.636 196.038 111.663 195.636 110.945 194.922C110.227 194.207 109.821 193.237 109.816 192.224V186.276Z" fill="#2F2E41"/>
<path d="M95.6919 218.282V223.225C95.6927 223.481 95.7945 223.726 95.975 223.908C96.1556 224.089 96.4005 224.192 96.6565 224.194H130.856C131.112 224.193 131.358 224.09 131.538 223.909C131.719 223.727 131.821 223.481 131.821 223.225V218.282H95.6919Z" fill="#3F3D56"/>
<path d="M39.3123 91.4393V185.027C39.3132 186.22 39.7874 187.363 40.6308 188.207C41.4741 189.05 42.6176 189.524 43.8103 189.525H182.498C183.69 189.524 184.834 189.05 185.677 188.207C186.521 187.363 186.995 186.22 186.996 185.027V91.4393C186.993 90.2477 186.518 89.1057 185.675 88.2636C184.832 87.4215 183.689 86.9478 182.498 86.9463H43.8103C42.6187 86.9478 41.4762 87.4215 40.6332 88.2636C39.7901 89.1058 39.3151 90.2477 39.3123 91.4393Z" fill="#3F3D56"/>
<path d="M42.5658 92.6037V183.873C42.5669 184.51 42.8205 185.121 43.2711 185.571C43.7217 186.022 44.3325 186.275 44.9697 186.276H181.343C181.98 186.275 182.591 186.022 183.042 185.571C183.492 185.121 183.746 184.51 183.747 183.873V92.6037C183.747 91.9657 183.494 91.3538 183.043 90.9022C182.593 90.4506 181.981 90.1961 181.343 90.1948H44.9697C44.3317 90.1962 43.7204 90.4506 43.2697 90.9022C42.819 91.3538 42.5659 91.9657 42.5658 92.6037Z" fill="white"/>
<path d="M67.8744 223.86C68.0132 224.034 68.1897 224.174 68.3905 224.27C68.5913 224.366 68.8113 224.415 69.0339 224.414H150.167C150.389 224.414 150.608 224.364 150.809 224.269C151.009 224.173 151.185 224.034 151.325 223.862C151.465 223.689 151.564 223.488 151.617 223.273C151.669 223.057 151.672 222.832 151.627 222.615L150.367 216.633C150.315 216.389 150.203 216.162 150.04 215.972C149.878 215.783 149.671 215.637 149.438 215.548C149.269 215.482 149.089 215.448 148.908 215.448H70.2883C70.1071 215.448 69.9274 215.482 69.7586 215.548C69.5255 215.637 69.3183 215.783 69.1559 215.972C68.9936 216.162 68.8812 216.389 68.829 216.633L67.5696 222.615C67.5248 222.832 67.5289 223.056 67.5816 223.272C67.6343 223.487 67.7344 223.688 67.8744 223.86Z" fill="#2F2E41"/>
<path d="M176.918 102.767H49.3134C49.1807 102.765 49.0545 102.71 48.9618 102.615C48.869 102.52 48.8171 102.393 48.8171 102.26C48.8171 102.127 48.869 102 48.9618 101.905C49.0545 101.81 49.1807 101.756 49.3134 101.753H176.918C177.05 101.756 177.176 101.81 177.269 101.905C177.362 102 177.414 102.127 177.414 102.26C177.414 102.393 177.362 102.52 177.269 102.615C177.176 102.71 177.05 102.765 176.918 102.767Z" fill="#3F3D56"/>
<path d="M57.9995 99.1617C59.642 99.1617 60.9734 97.8005 60.9734 96.1215C60.9734 94.4425 59.642 93.0814 57.9995 93.0814C56.3571 93.0814 55.0257 94.4425 55.0257 96.1215C55.0257 97.8005 56.3571 99.1617 57.9995 99.1617Z" fill="#3F3D56"/>
<path d="M68.2729 99.1617C69.9153 99.1617 71.2468 97.8005 71.2468 96.1215C71.2468 94.4425 69.9153 93.0814 68.2729 93.0814C66.6305 93.0814 65.299 94.4425 65.299 96.1215C65.299 97.8005 66.6305 99.1617 68.2729 99.1617Z" fill="#3F3D56"/>
<path d="M78.5463 99.1617C80.1887 99.1617 81.5202 97.8005 81.5202 96.1215C81.5202 94.4425 80.1887 93.0814 78.5463 93.0814C76.9039 93.0814 75.5724 94.4425 75.5724 96.1215C75.5724 97.8005 76.9039 99.1617 78.5463 99.1617Z" fill="#3F3D56"/>
<path d="M170.731 93.8332H163.435C163.29 93.8365 163.153 93.8962 163.052 93.9994C162.951 94.1026 162.895 94.2411 162.895 94.3854C162.895 94.5297 162.951 94.6682 163.052 94.7714C163.153 94.8746 163.29 94.9343 163.435 94.9377H170.731C170.876 94.9356 171.015 94.8765 171.117 94.7732C171.219 94.6698 171.276 94.5305 171.276 94.3854C171.276 94.2403 171.219 94.101 171.117 93.9976C171.015 93.8943 170.876 93.8352 170.731 93.8332Z" fill="#3F3D56"/>
<path d="M170.731 95.9072H163.435C163.29 95.9104 163.153 95.97 163.052 96.0732C162.951 96.1764 162.894 96.3151 162.894 96.4595C162.894 96.6039 162.951 96.7425 163.052 96.8457C163.153 96.949 163.29 97.0085 163.435 97.0117H170.731C170.877 97.01 171.015 96.951 171.117 96.8476C171.22 96.7443 171.277 96.6048 171.277 96.4595C171.277 96.3142 171.22 96.1747 171.117 96.0713C171.015 95.9679 170.877 95.909 170.731 95.9072Z" fill="#3F3D56"/>
<path d="M170.731 97.9813H163.435C163.29 97.9846 163.153 98.0443 163.052 98.1475C162.951 98.2507 162.895 98.3892 162.895 98.5335C162.895 98.6778 162.951 98.8163 163.052 98.9195C163.153 99.0227 163.29 99.0824 163.435 99.0858H170.731C170.876 99.0837 171.015 99.0246 171.117 98.9213C171.219 98.8179 171.276 98.6786 171.276 98.5335C171.276 98.3884 171.219 98.2491 171.117 98.1457C171.015 98.0424 170.876 97.9833 170.731 97.9813Z" fill="#3F3D56"/>
<path d="M346.642 220.451C346.862 221.092 347.28 221.647 347.835 222.036C348.39 222.425 349.054 222.628 349.732 222.616L362.972 222.275C363.654 222.262 364.315 222.028 364.853 221.608C365.392 221.189 365.781 220.606 365.961 219.948L367.834 199.913C368.499 200.214 369.223 200.363 369.952 200.348C370.586 200.332 371.211 200.192 371.79 199.934C372.37 199.677 372.893 199.308 373.33 198.849C373.767 198.389 374.109 197.848 374.337 197.257C374.565 196.665 374.674 196.034 374.658 195.4C374.642 194.766 374.502 194.142 374.244 193.562C373.987 192.983 373.618 192.459 373.159 192.022C372.699 191.585 372.158 191.243 371.567 191.015C370.975 190.788 370.344 190.678 369.71 190.694C369.418 190.693 369.128 190.724 368.842 190.785C368.532 190.449 368.155 190.182 367.736 190.001C367.316 189.82 366.863 189.729 366.406 189.734L346.04 190.259C345.871 190.266 345.703 190.287 345.538 190.322C345.091 190.405 344.668 190.583 344.296 190.844C343.924 191.104 343.612 191.442 343.381 191.833C343.15 192.225 343.006 192.661 342.958 193.113C342.91 193.564 342.959 194.021 343.103 194.452L346.642 220.451ZM368.219 198.553L369.552 193.779C369.704 193.227 369.707 192.645 369.562 192.092C369.627 192.092 369.684 192.061 369.749 192.061C370.663 192.042 371.547 192.386 372.208 193.019C372.868 193.651 373.251 194.519 373.273 195.433C373.294 196.347 372.952 197.232 372.322 197.895C371.691 198.557 370.824 198.943 369.91 198.966C369.319 198.985 368.734 198.842 368.219 198.553Z" fill="#2F2E41"/>
<path d="M345.538 190.322C345.972 192.803 350.85 194.547 356.716 194.244C362.11 193.995 366.52 192.101 367.328 189.856C367.029 189.768 366.718 189.727 366.406 189.734L346.04 190.259C345.871 190.266 345.703 190.287 345.538 190.322Z" fill="#3F3D56"/>
<path d="M357.791 209.442C357.818 209.435 357.843 209.424 357.866 209.409L360.742 207.527C360.776 207.504 360.805 207.473 360.825 207.437C360.845 207.4 360.855 207.36 360.855 207.318C360.855 207.277 360.845 207.236 360.825 207.199C360.805 207.163 360.777 207.132 360.742 207.109L357.753 205.152C357.726 205.133 357.695 205.121 357.663 205.115C357.631 205.108 357.597 205.109 357.565 205.115C357.533 205.122 357.502 205.135 357.475 205.153C357.448 205.172 357.425 205.195 357.407 205.223C357.389 205.25 357.376 205.281 357.37 205.314C357.364 205.346 357.364 205.379 357.371 205.411C357.378 205.443 357.391 205.474 357.409 205.501C357.428 205.528 357.452 205.551 357.479 205.569L360.149 207.318L357.593 208.991C357.543 209.023 357.507 209.072 357.49 209.129C357.473 209.185 357.477 209.246 357.501 209.3C357.525 209.355 357.567 209.398 357.62 209.424C357.673 209.45 357.734 209.457 357.791 209.442H357.791Z" fill="#E76F51"/>
<path d="M353.25 209.652C353.298 209.639 353.341 209.613 353.375 209.576C353.408 209.539 353.429 209.493 353.436 209.443C353.443 209.394 353.435 209.344 353.413 209.299C353.391 209.254 353.356 209.217 353.313 209.193L350.662 207.673L353.224 205.77C353.25 205.751 353.272 205.726 353.289 205.698C353.306 205.67 353.317 205.639 353.322 205.606C353.327 205.574 353.325 205.541 353.317 205.509C353.309 205.477 353.295 205.447 353.275 205.421C353.256 205.395 353.231 205.372 353.203 205.356C353.175 205.339 353.144 205.328 353.111 205.323C353.079 205.318 353.046 205.32 353.014 205.328C352.982 205.336 352.952 205.35 352.926 205.369L350.058 207.5C350.025 207.525 349.998 207.557 349.981 207.595C349.963 207.632 349.955 207.674 349.957 207.715C349.96 207.756 349.973 207.797 349.995 207.832C350.016 207.867 350.047 207.896 350.083 207.917L353.064 209.626C353.12 209.658 353.187 209.668 353.25 209.652Z" fill="#E76F51"/>
<path d="M357.505 211.091C357.529 211.085 357.552 211.076 357.573 211.062C357.601 211.045 357.626 211.023 357.645 210.997C357.665 210.97 357.679 210.94 357.686 210.908C357.694 210.876 357.696 210.843 357.691 210.811C357.686 210.778 357.674 210.747 357.657 210.719L353.581 204.018C353.547 203.961 353.491 203.921 353.427 203.905C353.362 203.89 353.294 203.9 353.238 203.935C353.181 203.969 353.141 204.025 353.125 204.089C353.109 204.153 353.12 204.221 353.154 204.278L357.23 210.979C357.258 211.025 357.3 211.06 357.349 211.08C357.399 211.101 357.453 211.104 357.505 211.091Z" fill="#E76F51"/>
<path d="M128.362 130.355H106.276C105.376 130.355 104.645 131.085 104.645 131.986V134.144C104.645 135.045 105.376 135.775 106.276 135.775H128.362C129.263 135.775 129.993 135.045 129.993 134.144V131.986C129.993 131.085 129.263 130.355 128.362 130.355Z" fill="#E76F51"/>
<path d="M141.235 141.196H93.403C92.5021 141.196 91.7717 141.926 91.7717 142.827V144.985C91.7717 145.886 92.5021 146.616 93.403 146.616H141.235C142.136 146.616 142.867 145.886 142.867 144.985V142.827C142.867 141.926 142.136 141.196 141.235 141.196Z" fill="#E6E6E6"/>
<path d="M141.235 152.036H93.403C92.5021 152.036 91.7717 152.767 91.7717 153.668V155.826C91.7717 156.726 92.5021 157.457 93.403 157.457H141.235C142.136 157.457 142.867 156.726 142.867 155.826V153.668C142.867 152.767 142.136 152.036 141.235 152.036Z" fill="#E6E6E6"/>
<path d="M145.29 188.338L145.398 188.68L145.404 188.692L148.665 198.606L152.417 210.031L159.475 231.502L159.543 234.838V234.849L160.068 261.679L158.614 265.317L160.25 271.28C160.25 271.28 159.498 262.266 155.461 267.442C153.175 270.384 150.501 273.395 148.306 276.217C151.505 277.511 154.754 278.682 158.055 279.729C158.768 279.957 159.486 280.173 160.205 280.39C160.359 280.436 160.513 280.481 160.666 280.527C171.609 283.763 182.921 285.581 194.327 285.937C194.92 285.954 195.501 285.966 196.066 285.977C196.265 285.983 196.459 285.989 196.653 285.989C197.291 285.994 197.924 286 198.563 286C199.851 286 201.134 285.981 202.411 285.943C211.863 285.677 221.261 284.406 230.444 282.152C230.382 278.36 230.21 273.93 229.965 269.198C229.851 266.878 227.291 264.364 227.138 261.935C227.029 260.111 229.327 258.394 229.207 256.542C228.432 245.133 227.463 249.513 226.744 241.434C226.67 240.641 226.602 239.883 226.539 239.159C226.077 233.971 225.758 230.727 225.758 230.727L228.825 211.394L233.643 181.04L233.272 180.43L232.856 180.225L207.445 167.648L206.066 164.113C205.664 163.095 204.966 162.22 204.063 161.602C203.16 160.983 202.092 160.648 200.997 160.641L184.258 160.573C183.39 160.569 182.533 160.772 181.758 161.166C180.984 161.56 180.314 162.132 179.806 162.836L175.273 169.113L145.29 188.338Z" fill="#3F3D56"/>
<path d="M163.335 226.725L159.543 234.838L156.955 240.379L152.502 263.692L150.273 266.058L148.363 257.682L128.373 262.12C127.718 258.477 128.198 262.244 127.793 258.247C127.907 258.133 128.027 258.019 128.146 257.905C128.466 257.608 128.734 257.329 128.728 257.061C128.5 243.275 129.184 219.815 134.897 205.601C135.791 203.281 136.971 201.08 138.409 199.051C138.523 198.897 138.631 198.743 138.739 198.589C141.373 194.9 143.038 191.269 145.398 188.686V188.68C145.413 188.668 145.427 188.655 145.438 188.64C145.447 188.636 145.455 188.63 145.461 188.623L161.676 180.026L162.371 199.57L162.867 213.617L163.335 226.725Z" fill="#3F3D56"/>
<path d="M221.801 229.029L226.537 239.162L228.19 242.691L232.641 266.001L234.863 268.361L236.777 259.988L237.677 259.803L253.899 256.443L258.627 271.46C259.692 269.684 260.112 267.595 259.815 265.546C259.518 263.496 258.523 261.612 256.997 260.212C256.674 259.92 256.405 259.635 256.413 259.366C256.682 243.152 255.69 213.545 246.733 201.359C243.889 197.492 242.182 193.641 239.699 190.95C239.691 190.942 239.691 190.934 239.683 190.934L233.64 181.04L233.271 180.432L232.856 180.225L221.801 229.029Z" fill="#3F3D56"/>
<path d="M193.111 155.809C205.41 155.809 215.38 145.839 215.38 133.54C215.38 121.241 205.41 111.271 193.111 111.271C180.812 111.271 170.842 121.241 170.842 133.54C170.842 145.839 180.812 155.809 193.111 155.809Z" fill="#FFB6B6"/>
<path d="M223.211 117.985C223.038 117.801 222.83 117.653 222.599 117.551C222.368 117.449 222.119 117.394 221.866 117.39L222.201 116.461C222.31 116.168 222.34 115.852 222.286 115.544C222.233 115.236 222.099 114.947 221.898 114.708C221.696 114.469 221.435 114.288 221.14 114.183C220.846 114.079 220.529 114.054 220.222 114.112L219.002 114.347L219.117 113.532C219.161 113.229 219.126 112.919 219.014 112.634C218.902 112.348 218.718 112.097 218.479 111.904C218.241 111.712 217.956 111.584 217.654 111.535C217.351 111.486 217.041 111.516 216.753 111.623C216.492 111.726 216.211 111.769 215.931 111.749C215.651 111.729 215.378 111.647 215.134 111.508C214.889 111.374 214.676 111.187 214.51 110.962C214.345 110.737 214.23 110.478 214.175 110.204L213.75 108.155L213.705 108.045C211.636 104.596 207.658 102.087 202.79 101.168C198.457 100.343 194.014 100.763 189.731 101.158C188.031 101.318 186.112 101.498 184.513 102.477C183.154 103.317 182.004 104.996 182.239 106.69C178.016 105.396 173.488 107.98 171.244 111.238C168.585 115.116 168.15 119.974 168.08 123.773C167.89 132.759 169.745 140.11 173.578 145.628C173.858 146.028 173.928 146.862 174.483 147.142L174.368 146.957C174.987 147.267 175.617 147.767 175.382 148.302C174.707 149.841 179.19 153.244 182.349 154.369C188.111 156.423 195.773 156.248 201.161 155.508L201.35 154.234C203.295 153.969 204.664 153.464 205.049 152.675C205.728 152.095 206.308 151.575 206.813 151.095L206.818 151.09C206.828 151.08 206.848 151.065 206.858 151.055C209.292 148.721 209.857 147.392 210.111 145.368C210.356 143.384 209.922 141.37 209.477 139.556C218.843 141.005 205.788 129.58 214.514 127.371C214.615 127.34 214.716 127.315 214.819 127.296C215.074 127.236 215.329 127.176 215.574 127.106C216.754 126.786 217.885 126.303 218.932 125.672C221.371 124.187 222.176 122.218 223.435 119.999C223.617 119.683 223.693 119.318 223.653 118.955C223.612 118.593 223.458 118.253 223.211 117.985Z" fill="#2F2E41"/>
<path d="M271.874 230.614C271.869 231.489 271.859 232.714 271.819 234.228C271.814 234.438 271.809 234.653 271.804 234.873C271.739 237.656 271.674 239.99 271.569 242.584C271.564 242.764 271.559 242.939 271.549 243.119C271.409 246.737 271.189 250.95 270.809 257.622C270.104 269.947 268.875 259.317 267.641 263.64C267.581 263.854 267.516 264.109 267.456 264.409C267.269 265.497 266.953 266.559 266.516 267.573C265.861 267.963 265.187 268.337 264.522 268.712C262.628 269.767 260.704 270.781 258.765 271.746C257.675 272.286 256.581 272.815 255.481 273.325C255.306 273.405 255.136 273.485 254.966 273.56C249.336 276.164 243.533 278.379 237.599 280.187C236.44 280.537 235.285 280.877 234.116 281.192C232.896 281.532 231.677 281.851 230.442 282.151C221.259 284.406 211.862 285.677 202.41 285.945C201.136 285.985 199.851 286 198.562 286C197.922 286 197.292 285.995 196.653 285.99C196.458 285.99 196.263 285.985 196.068 285.98C195.503 285.965 194.918 285.955 194.329 285.94C182.923 285.584 171.611 283.765 160.669 280.527L160.204 280.392C159.484 280.172 158.77 279.957 158.055 279.727C154.756 278.683 151.506 277.513 148.304 276.219C145.86 275.234 143.445 274.178 141.058 273.05C141.036 273.044 141.015 273.034 140.998 273.02C140.498 272.79 139.993 272.551 139.493 272.306C139.428 272.271 139.358 272.236 139.288 272.201C137.424 271.291 135.58 270.338 133.756 269.342C132.222 265.819 130.063 265.144 128.723 262.045C128.333 261.125 128.052 260.162 127.884 259.177C127.884 259.167 127.879 259.157 127.879 259.142C128.018 261.001 127.284 255.843 127.874 259.122C127.869 259.062 127.864 258.997 127.859 258.922C127.844 258.742 127.824 258.522 127.794 258.247C126.079 241.51 126.189 222.368 125.445 206.595C125.395 205.576 125.343 204.6 125.29 203.667C125.275 203.357 125.255 203.052 125.235 202.752C125.27 202.662 125.31 202.567 125.355 202.477C125.364 202.451 125.376 202.426 125.39 202.402C125.404 202.371 125.421 202.341 125.44 202.312C125.45 202.297 125.465 202.277 125.475 202.262C125.482 202.245 125.49 202.228 125.5 202.212C125.545 202.142 125.595 202.067 125.65 201.997C125.675 201.967 125.695 201.942 125.72 201.917C125.737 201.892 125.757 201.868 125.779 201.847C125.795 201.823 125.813 201.802 125.834 201.782C125.854 201.762 125.874 201.737 125.899 201.713C125.91 201.697 125.924 201.683 125.939 201.673C125.979 201.627 126.022 201.585 126.069 201.548C126.248 201.384 126.438 201.233 126.639 201.098C126.709 201.053 126.784 201.008 126.854 200.958C127.358 200.657 127.888 200.402 128.438 200.198C128.628 200.128 128.818 200.063 129.023 199.993C129.098 199.973 129.168 199.948 129.243 199.923C129.353 199.888 129.463 199.853 129.578 199.828C130.148 199.658 130.762 199.513 131.427 199.379C131.507 199.364 131.592 199.349 131.677 199.329C131.797 199.304 131.922 199.284 132.047 199.264C132.217 199.234 132.392 199.204 132.566 199.174C134.051 198.939 135.735 198.764 137.594 198.649C137.769 198.639 137.944 198.629 138.119 198.619C138.324 198.609 138.529 198.599 138.739 198.589C138.914 198.579 139.093 198.574 139.273 198.569C139.448 198.559 139.628 198.554 139.813 198.549C140.318 198.534 140.838 198.519 141.367 198.509C142.877 198.479 144.466 198.489 146.135 198.524C146.91 198.544 147.7 198.564 148.509 198.599C148.564 198.599 148.614 198.604 148.664 198.604C149.369 198.629 150.079 198.659 150.808 198.699C151.318 198.724 151.833 198.749 152.347 198.779C152.832 198.809 153.322 198.839 153.817 198.874C154.202 198.894 154.586 198.924 154.976 198.949C155.306 198.974 155.636 198.999 155.966 199.019L156.416 199.049C156.661 199.069 156.905 199.084 157.155 199.109C157.705 199.154 158.255 199.199 158.815 199.244C159.369 199.294 159.934 199.344 160.499 199.394C161.064 199.444 161.633 199.499 162.203 199.553C162.263 199.558 162.318 199.563 162.373 199.568C162.893 199.623 163.413 199.673 163.937 199.728C164.057 199.738 164.182 199.748 164.302 199.763C164.802 199.814 165.313 199.872 165.817 199.926C165.972 199.943 166.127 199.959 166.282 199.976C166.677 200.019 167.067 200.056 167.466 200.103C167.99 200.163 168.525 200.218 169.045 200.288C169.45 200.333 169.855 200.378 170.259 200.428C170.894 200.503 171.539 200.583 172.184 200.668C172.428 200.698 172.673 200.728 172.918 200.763C174.757 200.993 176.617 201.248 178.506 201.513C181.369 201.917 184.278 202.357 187.207 202.832C190.14 203.307 193.091 203.808 196.058 204.336C196.807 204.471 197.557 204.606 198.312 204.746C198.652 204.811 198.991 204.876 199.331 204.941C199.911 205.046 200.491 205.156 201.07 205.266C201.65 205.376 202.23 205.486 202.81 205.601C203.499 205.736 204.194 205.871 204.884 206.006C209.427 206.905 213.945 207.865 218.353 208.869C219.077 209.034 219.802 209.204 220.522 209.369C221.961 209.704 223.387 210.044 224.8 210.389C225.19 210.479 225.574 210.573 225.959 210.668C226.919 210.908 227.878 211.148 228.823 211.393L228.988 211.438C229.683 211.608 230.362 211.783 231.042 211.963C232.646 212.383 234.224 212.807 235.775 213.237C236.804 213.522 237.822 213.81 238.828 214.102C240.333 214.537 241.807 214.977 243.241 215.421C243.596 215.531 243.951 215.641 244.301 215.746C245.351 216.071 246.385 216.401 247.39 216.731C248.189 216.991 248.969 217.255 249.739 217.52C250.508 217.785 251.263 218.05 252.003 218.315C252.477 218.485 252.947 218.665 253.417 218.835C254.092 219.085 254.756 219.335 255.406 219.584C255.606 219.659 255.801 219.739 255.996 219.814C256.121 219.869 256.241 219.914 256.361 219.964C256.595 220.059 256.835 220.149 257.065 220.244C257.3 220.334 257.53 220.429 257.76 220.529C257.985 220.619 258.215 220.714 258.435 220.809C258.66 220.899 258.879 220.994 259.099 221.094C259.284 221.169 259.464 221.249 259.639 221.329C259.994 221.484 260.349 221.639 260.694 221.798C260.864 221.878 261.033 221.953 261.203 222.033L261.593 222.213C261.648 222.243 261.703 222.268 261.758 222.293C261.883 222.353 262.013 222.418 262.138 222.478C262.428 222.613 262.713 222.758 262.993 222.893C263.367 223.083 263.732 223.273 264.082 223.458C264.437 223.648 264.782 223.838 265.112 224.022C265.167 224.052 265.217 224.082 265.272 224.112C265.347 224.152 265.421 224.197 265.496 224.237C265.751 224.382 265.996 224.532 266.241 224.677C266.721 224.972 267.176 225.262 267.6 225.552C267.695 225.617 267.785 225.682 267.88 225.742C268.195 225.967 268.495 226.186 268.775 226.411C268.775 226.416 268.775 226.416 268.78 226.416C268.875 226.486 268.965 226.561 269.055 226.631C269.13 226.701 269.21 226.761 269.285 226.831C269.545 227.056 269.785 227.271 270.004 227.491C270.078 227.559 270.148 227.63 270.214 227.706C270.243 227.73 270.27 227.757 270.294 227.786C270.394 227.886 270.484 227.986 270.569 228.086C270.582 228.099 270.594 228.114 270.604 228.131C270.724 228.27 270.834 228.41 270.939 228.55C270.989 228.62 271.044 228.69 271.089 228.76C271.149 228.845 271.209 228.935 271.259 229.02C271.304 229.09 271.344 229.165 271.384 229.235C271.49 229.415 271.58 229.604 271.654 229.8C271.71 229.932 271.755 230.07 271.789 230.21C271.826 230.342 271.855 230.478 271.874 230.614Z" fill="#2F2E41"/>
<path opacity="0.2" d="M271.874 230.614C271.869 231.489 271.859 232.714 271.819 234.228C271.814 234.438 271.804 234.653 271.799 234.873C271.749 236.997 271.674 239.62 271.569 242.584C271.564 242.764 271.559 242.939 271.549 243.119C271.409 246.737 271.189 250.95 270.809 257.622C270.104 269.947 268.875 259.317 267.641 263.64C264.212 261.531 260.454 259.322 256.436 257.053C255.711 256.643 254.98 256.231 254.242 255.818C246.205 251.335 237.229 246.637 227.858 241.984C227.489 241.799 227.114 241.615 226.744 241.435C205.279 230.824 181.849 220.504 162.868 213.617C159.204 212.288 155.706 211.088 152.417 210.034C145.491 207.82 139.503 206.27 134.895 205.601C130.098 204.901 126.784 205.151 125.445 206.595C125.395 205.576 125.343 204.6 125.29 203.667C125.27 203.357 125.25 203.052 125.23 202.752C125.261 202.67 125.301 202.591 125.339 202.512C125.345 202.5 125.349 202.489 125.355 202.477C125.364 202.451 125.376 202.426 125.39 202.402C125.404 202.371 125.421 202.341 125.44 202.312C125.456 202.277 125.476 202.243 125.5 202.212C125.545 202.142 125.595 202.067 125.65 201.997C125.69 201.945 125.733 201.895 125.779 201.847C125.795 201.823 125.813 201.802 125.834 201.782C125.854 201.762 125.874 201.737 125.899 201.712C125.91 201.697 125.924 201.683 125.939 201.673C125.979 201.627 126.022 201.585 126.069 201.548C126.248 201.383 126.438 201.233 126.639 201.098C126.709 201.053 126.784 201.008 126.854 200.958C127.358 200.657 127.888 200.402 128.438 200.198C128.628 200.128 128.818 200.063 129.023 199.993C129.098 199.973 129.168 199.948 129.243 199.923C129.353 199.888 129.463 199.853 129.578 199.828C130.147 199.658 130.762 199.513 131.427 199.379C131.627 199.339 131.837 199.299 132.047 199.264C132.217 199.234 132.391 199.204 132.566 199.174C134.051 198.939 135.735 198.764 137.594 198.649C137.769 198.639 137.944 198.629 138.119 198.619C138.324 198.609 138.529 198.599 138.739 198.589C138.914 198.579 139.093 198.574 139.273 198.569C139.448 198.559 139.628 198.554 139.813 198.549C140.318 198.534 140.838 198.519 141.367 198.509C142.877 198.484 144.466 198.494 146.135 198.529C146.91 198.544 147.7 198.569 148.509 198.604C148.559 198.604 148.614 198.609 148.664 198.609C149.369 198.629 150.084 198.664 150.808 198.699C151.318 198.724 151.833 198.749 152.347 198.779C152.832 198.809 153.322 198.839 153.817 198.874C154.202 198.894 154.586 198.924 154.976 198.949C155.306 198.974 155.636 198.999 155.966 199.019C156.361 199.049 156.755 199.079 157.155 199.109C157.705 199.154 158.255 199.199 158.815 199.244C159.369 199.294 159.934 199.344 160.499 199.394C161.064 199.443 161.633 199.498 162.203 199.553C162.263 199.558 162.318 199.563 162.373 199.568C162.893 199.623 163.412 199.673 163.937 199.728C166.846 200.023 169.84 200.368 172.918 200.763C174.757 200.998 176.62 201.249 178.506 201.518C181.369 201.922 184.278 202.362 187.207 202.832C190.14 203.307 193.091 203.808 196.058 204.336C196.807 204.471 197.557 204.606 198.312 204.746C199.231 204.916 200.151 205.089 201.071 205.266C201.65 205.376 202.23 205.486 202.81 205.601C203.499 205.736 204.194 205.871 204.884 206.006C209.427 206.905 213.945 207.865 218.353 208.869C219.077 209.034 219.802 209.204 220.522 209.369C221.961 209.704 223.387 210.044 224.8 210.389C225.19 210.484 225.574 210.578 225.959 210.673C226.924 210.913 227.878 211.153 228.823 211.393V211.398C228.878 211.408 228.933 211.423 228.988 211.438C229.678 211.613 230.362 211.788 231.042 211.968C232.646 212.388 234.224 212.811 235.775 213.237C236.804 213.527 237.824 213.812 238.828 214.102C240.333 214.542 241.807 214.981 243.242 215.421C243.596 215.531 243.951 215.641 244.301 215.746C245.351 216.076 246.38 216.404 247.39 216.731C248.189 216.991 248.969 217.255 249.739 217.52C250.508 217.785 251.263 218.05 252.003 218.315C252.482 218.485 252.952 218.66 253.417 218.83C254.097 219.08 254.756 219.33 255.406 219.584C255.606 219.659 255.801 219.739 255.996 219.814C256.361 219.954 256.715 220.099 257.065 220.244C257.3 220.334 257.53 220.429 257.76 220.529C257.985 220.619 258.215 220.714 258.435 220.809C258.66 220.899 258.879 220.994 259.099 221.094C259.284 221.169 259.464 221.249 259.639 221.329C259.994 221.484 260.349 221.638 260.694 221.798C260.864 221.878 261.033 221.953 261.203 222.033L261.593 222.213C261.648 222.243 261.703 222.268 261.758 222.293C262.183 222.493 262.593 222.693 262.993 222.893C263.367 223.083 263.732 223.273 264.082 223.458C264.497 223.678 264.892 223.892 265.272 224.112C265.347 224.152 265.422 224.197 265.496 224.237C265.751 224.382 265.996 224.532 266.241 224.677C266.721 224.972 267.176 225.262 267.601 225.552C268.02 225.842 268.41 226.126 268.775 226.411C268.775 226.416 268.775 226.416 268.78 226.416C268.955 226.556 269.125 226.696 269.285 226.831C269.545 227.056 269.785 227.271 270.004 227.491C270.078 227.559 270.148 227.63 270.214 227.706C270.243 227.73 270.27 227.757 270.294 227.786C270.399 227.901 270.504 228.016 270.604 228.131C270.724 228.27 270.834 228.41 270.939 228.55C270.989 228.62 271.044 228.69 271.089 228.76C271.149 228.845 271.209 228.935 271.259 229.02C271.304 229.09 271.344 229.165 271.384 229.235C271.49 229.415 271.58 229.604 271.654 229.8C271.708 229.933 271.754 230.07 271.789 230.21C271.827 230.342 271.855 230.478 271.874 230.614Z" fill="black"/>
</g>
<defs>
<clipPath id="clip0_1704_185">
<rect width="393.233" height="286" fill="white"/>
</clipPath>
</defs>
</svg>
